<svg xmlns="http://www.w3.org/2000/svg" xmlns:xlink="http://www.w3.org/1999/xlink" width="419" zoomAndPan="magnify" viewBox="0 0 314.25 83.999999" height="112" preserveAspectRatio="xMidYMid meet" version="1.0"><defs><g/><clipPath id="99fc87c7b3"><path d="M 249.488281 22.621094 L 265.941406 22.621094 L 265.941406 39.074219 L 249.488281 39.074219 Z M 249.488281 22.621094 " clip-rule="nonzero"/></clipPath><clipPath id="7e1a5629be"><path d="M 251.734375 22.621094 L 263.695312 22.621094 C 264.933594 22.621094 265.941406 23.628906 265.941406 24.867188 L 265.941406 36.828125 C 265.941406 38.066406 264.933594 39.074219 263.695312 39.074219 L 251.734375 39.074219 C 250.492188 39.074219 249.488281 38.066406 249.488281 36.828125 L 249.488281 24.867188 C 249.488281 23.628906 250.492188 22.621094 251.734375 22.621094 Z M 251.734375 22.621094 " clip-rule="nonzero"/></clipPath><clipPath id="d15f0a27ce"><path d="M 270.289062 22.621094 L 286.738281 22.621094 L 286.738281 39.074219 L 270.289062 39.074219 Z M 270.289062 22.621094 " clip-rule="nonzero"/></clipPath><clipPath id="87c4eba02e"><path d="M 272.535156 22.621094 L 284.496094 22.621094 C 285.734375 22.621094 286.738281 23.628906 286.738281 24.867188 L 286.738281 36.828125 C 286.738281 38.066406 285.734375 39.074219 284.496094 39.074219 L 272.535156 39.074219 C 271.292969 39.074219 270.289062 38.066406 270.289062 36.828125 L 270.289062 24.867188 C 270.289062 23.628906 271.292969 22.621094 272.535156 22.621094 Z M 272.535156 22.621094 " clip-rule="nonzero"/></clipPath><clipPath id="69d0eb4ebd"><path d="M 291.230469 22.621094 L 307.679688 22.621094 L 307.679688 39.074219 L 291.230469 39.074219 Z M 291.230469 22.621094 " clip-rule="nonzero"/></clipPath><clipPath id="bd7fcc9d1f"><path d="M 293.472656 22.621094 L 305.4375 22.621094 C 306.675781 22.621094 307.679688 23.628906 307.679688 24.867188 L 307.679688 36.828125 C 307.679688 38.066406 306.675781 39.074219 305.4375 39.074219 L 293.472656 39.074219 C 292.234375 39.074219 291.230469 38.066406 291.230469 36.828125 L 291.230469 24.867188 C 291.230469 23.628906 292.234375 22.621094 293.472656 22.621094 Z M 293.472656 22.621094 " clip-rule="nonzero"/></clipPath><clipPath id="731e6702b2"><path d="M 254.761719 42.042969 L 271.210938 42.042969 L 271.210938 58.496094 L 254.761719 58.496094 Z M 254.761719 42.042969 " clip-rule="nonzero"/></clipPath><clipPath id="160eee96d5"><path d="M 257.007812 42.042969 L 268.96875 42.042969 C 270.207031 42.042969 271.210938 43.050781 271.210938 44.289062 L 271.210938 56.25 C 271.210938 57.492188 270.207031 58.496094 268.96875 58.496094 L 257.007812 58.496094 C 255.765625 58.496094 254.761719 57.492188 254.761719 56.25 L 254.761719 44.289062 C 254.761719 43.050781 255.765625 42.042969 257.007812 42.042969 Z M 257.007812 42.042969 " clip-rule="nonzero"/></clipPath><clipPath id="36c8cfdb56"><path d="M 275.5625 42.042969 L 292.011719 42.042969 L 292.011719 58.496094 L 275.5625 58.496094 Z M 275.5625 42.042969 " clip-rule="nonzero"/></clipPath><clipPath id="e8d94e8fec"><path d="M 277.804688 42.042969 L 289.769531 42.042969 C 291.007812 42.042969 292.011719 43.050781 292.011719 44.289062 L 292.011719 56.25 C 292.011719 57.492188 291.007812 58.496094 289.769531 58.496094 L 277.804688 58.496094 C 276.566406 58.496094 275.5625 57.492188 275.5625 56.25 L 275.5625 44.289062 C 275.5625 43.050781 276.566406 42.042969 277.804688 42.042969 Z M 277.804688 42.042969 " clip-rule="nonzero"/></clipPath><clipPath id="eaaca36b2a"><path d="M 296.503906 42.042969 L 312.953125 42.042969 L 312.953125 58.496094 L 296.503906 58.496094 Z M 296.503906 42.042969 " clip-rule="nonzero"/></clipPath><clipPath id="a3f3369eab"><path d="M 298.746094 42.042969 L 310.707031 42.042969 C 311.949219 42.042969 312.953125 43.050781 312.953125 44.289062 L 312.953125 56.25 C 312.953125 57.492188 311.949219 58.496094 310.707031 58.496094 L 298.746094 58.496094 C 297.507812 58.496094 296.503906 57.492188 296.503906 56.25 L 296.503906 44.289062 C 296.503906 43.050781 297.507812 42.042969 298.746094 42.042969 Z M 298.746094 42.042969 " clip-rule="nonzero"/></clipPath></defs><g clip-path="url(#99fc87c7b3)"><g clip-path="url(#7e1a5629be)"><path fill="#ffffff" d="M 249.488281 22.621094 L 265.941406 22.621094 L 265.941406 39.074219 L 249.488281 39.074219 Z M 249.488281 22.621094 " fill-opacity="1" fill-rule="nonzero"/></g></g><g clip-path="url(#d15f0a27ce)"><g clip-path="url(#87c4eba02e)"><path fill="#ffffff" d="M 270.289062 22.621094 L 286.738281 22.621094 L 286.738281 39.074219 L 270.289062 39.074219 Z M 270.289062 22.621094 " fill-opacity="1" fill-rule="nonzero"/></g></g><g clip-path="url(#69d0eb4ebd)"><g clip-path="url(#bd7fcc9d1f)"><path fill="#ffffff" d="M 291.230469 22.621094 L 307.679688 22.621094 L 307.679688 39.074219 L 291.230469 39.074219 Z M 291.230469 22.621094 " fill-opacity="1" fill-rule="nonzero"/></g></g><g clip-path="url(#731e6702b2)"><g clip-path="url(#160eee96d5)"><path fill="#ffffff" d="M 254.761719 42.042969 L 271.210938 42.042969 L 271.210938 58.496094 L 254.761719 58.496094 Z M 254.761719 42.042969 " fill-opacity="1" fill-rule="nonzero"/></g></g><g clip-path="url(#36c8cfdb56)"><g clip-path="url(#e8d94e8fec)"><path fill="#ffffff" d="M 275.5625 42.042969 L 292.011719 42.042969 L 292.011719 58.496094 L 275.5625 58.496094 Z M 275.5625 42.042969 " fill-opacity="1" fill-rule="nonzero"/></g></g><g clip-path="url(#eaaca36b2a)"><g clip-path="url(#a3f3369eab)"><path fill="#ffffff" d="M 296.503906 42.042969 L 312.953125 42.042969 L 312.953125 58.496094 L 296.503906 58.496094 Z M 296.503906 42.042969 " fill-opacity="1" fill-rule="nonzero"/></g></g><g fill="#ffffff" fill-opacity="1"><g transform="translate(14.056128, 57.382792)"><g><path d="M 8.28125 -3.59375 L 24.09375 -3.59375 L 24.09375 0 L 3.875 0 L 3.875 -33.34375 L 8.28125 -33.34375 Z M 8.28125 -3.59375 "/></g></g></g><g fill="#ffffff" fill-opacity="1"><g transform="translate(39.281758, 57.382792)"><g><path d="M 8.578125 0 L 4.1875 0 L 4.1875 -33.34375 L 8.578125 -33.34375 Z M 8.578125 0 "/></g></g></g><g fill="#ffffff" fill-opacity="1"><g transform="translate(52.031918, 57.382792)"><g><path d="M 26.90625 -29.71875 L 16.1875 -29.71875 L 16.1875 0 L 11.8125 0 L 11.8125 -29.71875 L 1.125 -29.71875 L 1.125 -33.34375 L 26.90625 -33.34375 Z M 26.90625 -29.71875 "/></g></g></g><g fill="#ffffff" fill-opacity="1"><g transform="translate(80.00444, 57.382792)"><g><path d="M 22.71875 -15.40625 L 8.265625 -15.40625 L 8.265625 -3.59375 L 25.046875 -3.59375 L 25.046875 0 L 3.875 0 L 3.875 -33.34375 L 24.8125 -33.34375 L 24.8125 -29.71875 L 8.265625 -29.71875 L 8.265625 -19 L 22.71875 -19 Z M 22.71875 -15.40625 "/></g></g></g><g fill="#ffffff" fill-opacity="1"><g transform="translate(106.649298, 57.382792)"><g><path d="M 12.34375 -15.5 L 8.265625 -11.265625 L 8.265625 0 L 3.875 0 L 3.875 -33.34375 L 8.265625 -33.34375 L 8.265625 -16.84375 L 23.078125 -33.34375 L 28.390625 -33.34375 L 15.265625 -18.609375 L 29.421875 0 L 24.15625 0 Z M 12.34375 -15.5 "/></g></g></g><g fill="#ffffff" fill-opacity="1"><g transform="translate(136.041048, 57.382792)"><g><path d="M 22.71875 -15.40625 L 8.265625 -15.40625 L 8.265625 -3.59375 L 25.046875 -3.59375 L 25.046875 0 L 3.875 0 L 3.875 -33.34375 L 24.8125 -33.34375 L 24.8125 -29.71875 L 8.265625 -29.71875 L 8.265625 -19 L 22.71875 -19 Z M 22.71875 -15.40625 "/></g></g></g><g fill="#ffffff" fill-opacity="1"><g transform="translate(162.685906, 57.382792)"><g><path d="M 14.03125 -16.59375 L 22.734375 -33.34375 L 27.734375 -33.34375 L 16.234375 -12.4375 L 16.234375 0 L 11.84375 0 L 11.84375 -12.4375 L 0.34375 -33.34375 L 5.375 -33.34375 Z M 14.03125 -16.59375 "/></g></g></g><g fill="#ffffff" fill-opacity="1"><g transform="translate(190.841555, 57.382792)"><g><path d="M 13.6875 -14.859375 C 9.914062 -15.941406 7.171875 -17.269531 5.453125 -18.84375 C 3.742188 -20.425781 2.890625 -22.378906 2.890625 -24.703125 C 2.890625 -27.328125 3.9375 -29.5 6.03125 -31.21875 C 8.132812 -32.9375 10.863281 -33.796875 14.21875 -33.796875 C 16.507812 -33.796875 18.550781 -33.351562 20.34375 -32.46875 C 22.132812 -31.582031 23.519531 -30.359375 24.5 -28.796875 C 25.488281 -27.242188 25.984375 -25.546875 25.984375 -23.703125 L 21.5625 -23.703125 C 21.5625 -25.710938 20.921875 -27.289062 19.640625 -28.4375 C 18.359375 -29.59375 16.550781 -30.171875 14.21875 -30.171875 C 12.050781 -30.171875 10.359375 -29.691406 9.140625 -28.734375 C 7.929688 -27.785156 7.328125 -26.460938 7.328125 -24.765625 C 7.328125 -23.410156 7.898438 -22.265625 9.046875 -21.328125 C 10.203125 -20.390625 12.164062 -19.53125 14.9375 -18.75 C 17.707031 -17.96875 19.875 -17.109375 21.4375 -16.171875 C 23 -15.234375 24.160156 -14.140625 24.921875 -12.890625 C 25.679688 -11.640625 26.0625 -10.164062 26.0625 -8.46875 C 26.0625 -5.769531 25.003906 -3.609375 22.890625 -1.984375 C 20.785156 -0.359375 17.972656 0.453125 14.453125 0.453125 C 12.160156 0.453125 10.019531 0.015625 8.03125 -0.859375 C 6.050781 -1.734375 4.519531 -2.929688 3.4375 -4.453125 C 2.363281 -5.984375 1.828125 -7.71875 1.828125 -9.65625 L 6.25 -9.65625 C 6.25 -7.644531 6.992188 -6.054688 8.484375 -4.890625 C 9.972656 -3.722656 11.960938 -3.140625 14.453125 -3.140625 C 16.765625 -3.140625 18.539062 -3.609375 19.78125 -4.546875 C 21.019531 -5.492188 21.640625 -6.785156 21.640625 -8.421875 C 21.640625 -10.054688 21.066406 -11.316406 19.921875 -12.203125 C 18.773438 -13.097656 16.695312 -13.984375 13.6875 -14.859375 Z M 13.6875 -14.859375 "/></g></g></g></svg>